<mxfile host="app.diagrams.net" modified="2021-03-13T14:40:10.739Z" agent="5.0 (X11; CrOS x86_64 13597.105.0) AppleWebKit/537.36 (KHTML, like Gecko) Chrome/88.0.4324.208 Safari/537.36" etag="EbdAiRt7LW3g0hll0V7C" version="14.4.8" type="github">
  <diagram id="b85PMOxXiko4DcHJK5tH" name="Page-1">
    <mxGraphModel dx="1209" dy="666" grid="1" gridSize="10" guides="1" tooltips="1" connect="1" arrows="1" fold="1" page="1" pageScale="1" pageWidth="850" pageHeight="1100" math="0" shadow="0">
      <root>
        <mxCell id="0" />
        <mxCell id="1" parent="0" />
        <mxCell id="xE941f2TDOj8gQ2ymj3V-1" value="3D Game" style="rounded=1;whiteSpace=wrap;html=1;" vertex="1" parent="1">
          <mxGeometry x="178" y="200" width="120" height="60" as="geometry" />
        </mxCell>
        <mxCell id="xE941f2TDOj8gQ2ymj3V-13" style="edgeStyle=orthogonalEdgeStyle;rounded=0;orthogonalLoop=1;jettySize=auto;html=1;entryX=1;entryY=0.5;entryDx=0;entryDy=0;startArrow=none;startFill=0;endArrow=classic;endFill=1;" edge="1" parent="1" source="xE941f2TDOj8gQ2ymj3V-2" target="xE941f2TDOj8gQ2ymj3V-12">
          <mxGeometry relative="1" as="geometry" />
        </mxCell>
        <mxCell id="xE941f2TDOj8gQ2ymj3V-2" value="Street" style="rounded=1;whiteSpace=wrap;html=1;verticalAlign=top;" vertex="1" parent="1">
          <mxGeometry x="423" y="530" width="120" height="60" as="geometry" />
        </mxCell>
        <mxCell id="xE941f2TDOj8gQ2ymj3V-5" style="edgeStyle=orthogonalEdgeStyle;rounded=0;orthogonalLoop=1;jettySize=auto;html=1;entryX=1;entryY=0.5;entryDx=0;entryDy=0;exitX=1;exitY=0.5;exitDx=0;exitDy=0;" edge="1" parent="1" source="xE941f2TDOj8gQ2ymj3V-3" target="xE941f2TDOj8gQ2ymj3V-1">
          <mxGeometry relative="1" as="geometry" />
        </mxCell>
        <mxCell id="xE941f2TDOj8gQ2ymj3V-3" value="VR" style="rounded=1;whiteSpace=wrap;html=1;" vertex="1" parent="1">
          <mxGeometry x="228" y="120" width="120" height="60" as="geometry" />
        </mxCell>
        <mxCell id="xE941f2TDOj8gQ2ymj3V-15" style="edgeStyle=orthogonalEdgeStyle;rounded=0;orthogonalLoop=1;jettySize=auto;html=1;entryX=0.5;entryY=0;entryDx=0;entryDy=0;startArrow=none;startFill=0;endArrow=classic;endFill=1;" edge="1" parent="1" source="xE941f2TDOj8gQ2ymj3V-6" target="xE941f2TDOj8gQ2ymj3V-14">
          <mxGeometry relative="1" as="geometry" />
        </mxCell>
        <mxCell id="xE941f2TDOj8gQ2ymj3V-6" value="2D Game" style="rounded=1;whiteSpace=wrap;html=1;" vertex="1" parent="1">
          <mxGeometry x="423" y="200" width="120" height="60" as="geometry" />
        </mxCell>
        <mxCell id="xE941f2TDOj8gQ2ymj3V-8" style="edgeStyle=orthogonalEdgeStyle;rounded=0;orthogonalLoop=1;jettySize=auto;html=1;entryX=0.5;entryY=1;entryDx=0;entryDy=0;" edge="1" parent="1" source="xE941f2TDOj8gQ2ymj3V-7" target="xE941f2TDOj8gQ2ymj3V-2">
          <mxGeometry relative="1" as="geometry" />
        </mxCell>
        <mxCell id="xE941f2TDOj8gQ2ymj3V-7" value="Map" style="rounded=1;whiteSpace=wrap;html=1;" vertex="1" parent="1">
          <mxGeometry x="423" y="650" width="120" height="60" as="geometry" />
        </mxCell>
        <mxCell id="xE941f2TDOj8gQ2ymj3V-9" style="edgeStyle=orthogonalEdgeStyle;rounded=0;orthogonalLoop=1;jettySize=auto;html=1;entryX=0.5;entryY=1;entryDx=0;entryDy=0;startArrow=classic;startFill=1;endArrow=none;endFill=0;exitX=1;exitY=0.25;exitDx=0;exitDy=0;" edge="1" parent="1" source="xE941f2TDOj8gQ2ymj3V-2" target="xE941f2TDOj8gQ2ymj3V-10">
          <mxGeometry relative="1" as="geometry">
            <Array as="points">
              <mxPoint x="563" y="545" />
              <mxPoint x="563" y="610" />
              <mxPoint x="508" y="610" />
            </Array>
          </mxGeometry>
        </mxCell>
        <mxCell id="xE941f2TDOj8gQ2ymj3V-10" value="Junction" style="rounded=0;whiteSpace=wrap;html=1;" vertex="1" parent="1">
          <mxGeometry x="473" y="560" width="70" height="20" as="geometry" />
        </mxCell>
        <mxCell id="xE941f2TDOj8gQ2ymj3V-12" value="Buildings" style="rounded=1;whiteSpace=wrap;html=1;" vertex="1" parent="1">
          <mxGeometry x="213" y="530" width="120" height="60" as="geometry" />
        </mxCell>
        <mxCell id="xE941f2TDOj8gQ2ymj3V-18" style="edgeStyle=orthogonalEdgeStyle;rounded=0;orthogonalLoop=1;jettySize=auto;html=1;entryX=0.5;entryY=0;entryDx=0;entryDy=0;startArrow=none;startFill=0;endArrow=classic;endFill=1;" edge="1" parent="1" source="xE941f2TDOj8gQ2ymj3V-14" target="xE941f2TDOj8gQ2ymj3V-16">
          <mxGeometry relative="1" as="geometry" />
        </mxCell>
        <mxCell id="xE941f2TDOj8gQ2ymj3V-14" value="StreetScene&lt;br&gt;(nee GameScene)" style="rounded=1;whiteSpace=wrap;html=1;" vertex="1" parent="1">
          <mxGeometry x="423" y="310" width="120" height="60" as="geometry" />
        </mxCell>
        <mxCell id="xE941f2TDOj8gQ2ymj3V-17" style="edgeStyle=orthogonalEdgeStyle;rounded=0;orthogonalLoop=1;jettySize=auto;html=1;entryX=0.5;entryY=0;entryDx=0;entryDy=0;startArrow=none;startFill=0;endArrow=classic;endFill=1;" edge="1" parent="1" source="xE941f2TDOj8gQ2ymj3V-16" target="xE941f2TDOj8gQ2ymj3V-2">
          <mxGeometry relative="1" as="geometry" />
        </mxCell>
        <mxCell id="xE941f2TDOj8gQ2ymj3V-16" value="2D Street Renderer" style="rounded=1;whiteSpace=wrap;html=1;fillColor=#e1d5e7;strokeColor=#9673a6;" vertex="1" parent="1">
          <mxGeometry x="423" y="430" width="120" height="60" as="geometry" />
        </mxCell>
        <mxCell id="xE941f2TDOj8gQ2ymj3V-20" style="rounded=0;orthogonalLoop=1;jettySize=auto;html=1;entryX=1;entryY=0.5;entryDx=0;entryDy=0;startArrow=none;startFill=0;endArrow=classic;endFill=1;" edge="1" parent="1" source="xE941f2TDOj8gQ2ymj3V-19" target="xE941f2TDOj8gQ2ymj3V-16">
          <mxGeometry relative="1" as="geometry" />
        </mxCell>
        <mxCell id="xE941f2TDOj8gQ2ymj3V-19" value="Factor out of Street" style="shape=note;whiteSpace=wrap;html=1;backgroundOutline=1;darkOpacity=0.05;" vertex="1" parent="1">
          <mxGeometry x="593" y="340" width="80" height="100" as="geometry" />
        </mxCell>
        <mxCell id="xE941f2TDOj8gQ2ymj3V-23" style="edgeStyle=none;rounded=0;orthogonalLoop=1;jettySize=auto;html=1;entryX=0.5;entryY=0;entryDx=0;entryDy=0;startArrow=none;startFill=0;endArrow=classic;endFill=1;" edge="1" parent="1" source="xE941f2TDOj8gQ2ymj3V-21" target="xE941f2TDOj8gQ2ymj3V-12">
          <mxGeometry relative="1" as="geometry" />
        </mxCell>
        <mxCell id="xE941f2TDOj8gQ2ymj3V-21" value="3D Building Renderer" style="rounded=1;whiteSpace=wrap;html=1;fillColor=#fff2cc;strokeColor=#d6b656;" vertex="1" parent="1">
          <mxGeometry x="213" y="430" width="120" height="60" as="geometry" />
        </mxCell>
      </root>
    </mxGraphModel>
  </diagram>
</mxfile>
